<svg width="720" height="320" viewBox="0 0 720 320" fill="none" xmlns="http://www.w3.org/2000/svg">
  <g stroke="#CCB290" stroke-width="1.45" stroke-linecap="round" stroke-linejoin="round" opacity="0.98">
    <path d="M31 56H61C62.1 56 63 55.1 63 54V32C63 30.9 62.1 30 61 30H31C29.9 30 29 30.9 29 32V54C29 55.1 29.9 56 31 56Z" />
    <path d="M38 30C38 24.5 42.5 20 48 20C53.5 20 58 24.5 58 30" />
    <circle cx="178" cy="30" r="13.5" />
    <path d="M173 27.5H173.1" />
    <path d="M183 27.5H183.1" />
    <path d="M172 34C174.8 36.8 181.2 36.8 184 34" />
    <path d="M362 15L348 35H358L352 53L369 30H359L362 15Z" />
    <path d="M527 56H557C558.1 56 559 55.1 559 54V32C559 30.9 558.1 30 557 30H527C525.9 30 525 30.9 525 32V54C525 55.1 525.9 56 527 56Z" />
    <path d="M534 30C534 24.5 538.5 20 544 20C549.5 20 554 24.5 554 30" />
    <path d="M28 181C40 176 53 176 65 181C77 186 90 186 102 181" />
    <path d="M145 108L159 136L131 123L145 108Z" />
    <path d="M282 110C282 104.5 286.5 100 292 100C297.5 100 302 104.5 302 110V120L292 126L282 120V110Z" />
    <circle cx="292" cy="112" r="4.5" />
    <path d="M435 124L447 104H473L485 124L460 140L435 124Z" />
    <path d="M601 108L615 136L587 123L601 108Z" />
    <circle cx="656" cy="112" r="8" />
    <path d="M656 104V120L664 126" />
    <path d="M105 246L108.6 253.3L116.7 254.4L110.8 260.1L112.2 268.1L105 264.2L97.8 268.1L99.2 260.1L93.3 254.4L101.4 253.3L105 246Z" />
    <circle cx="245" cy="252" r="14" />
    <path d="M245 244V252H251" />
    <path d="M394 266H424C425.1 266 426 265.1 426 264V242C426 240.9 425.1 240 424 240H394C392.9 240 392 240.9 392 242V264C392 265.1 392.9 266 394 266Z" />
    <path d="M401 240C401 234.5 405.5 230 411 230C416.5 230 421 234.5 421 240" />
    <path d="M544 246L547.6 253.3L555.7 254.4L549.8 260.1L551.2 268.1L544 264.2L536.8 268.1L538.2 260.1L532.3 254.4L540.4 253.3L544 246Z" />
    <circle cx="658" cy="252" r="14" />
    <path d="M658 244V252H664" />
  </g>
</svg>
