<svg width="680" height="300" viewBox="0 0 680 300" fill="none" xmlns="http://www.w3.org/2000/svg">
  <g stroke="#D8BE9D" stroke-width="1.3" stroke-linecap="round" stroke-linejoin="round" opacity="0.94">
    <path d="M54 105L65 87H87L98 105L76 119L54 105Z" />
    <path d="M160 121L175 147L149 135L160 121Z" />
    <circle cx="224" cy="76" r="8.5" />
    <path d="M224 71V81" />
    <path d="M219 76H229" />
    <path d="M312 175C325 170 339 170 352 175C365 180 379 180 392 175" />
    <circle cx="154" cy="206" r="7" />
    <path d="M264 242L267 248L273.6 249L268.8 253.7L269.9 260.2L264 257L258.1 260.2L259.2 253.7L254.4 249L261 248L264 242Z" />
    <circle cx="515" cy="206" r="7" />
    <path d="M515 199V206H520" />
    <path d="M592 97L606 123L580 111L592 97Z" />
    <path d="M625 53L614 69H622L617 83L630 64H622L625 53Z" />
    <path d="M632 235L635 241L641.6 242L636.8 246.7L637.9 253.2L632 250L626.1 253.2L627.2 246.7L622.4 242L629 241L632 235Z" />
    <circle cx="432" cy="80" r="5.5" />
    <circle cx="472" cy="248" r="4.5" />
  </g>
</svg>
